<svg xmlns="http://www.w3.org/2000/svg" viewBox="0 0 400 300" fill="none">
  <!-- Background circles -->
  <circle cx="80" cy="80" r="60" fill="#FFF8F3" opacity="0.5"/>
  <circle cx="320" cy="220" r="50" fill="#CDE7F0" opacity="0.5"/>
  
  <!-- Adult figure (nounou) -->
  <ellipse cx="200" cy="240" rx="50" ry="15" fill="#FADADD" opacity="0.3"/>
  <path d="M200 180 L200 220" stroke="#FADADD" stroke-width="8" stroke-linecap="round"/>
  <circle cx="200" cy="165" r="18" fill="#FADADD"/>
  <path d="M185 190 Q180 200 170 210" stroke="#FADADD" stroke-width="6" stroke-linecap="round"/>
  <path d="M215 190 Q220 200 230 210" stroke="#FADADD" stroke-width="6" stroke-linecap="round"/>
  <path d="M180 220 L180 240" stroke="#FADADD" stroke-width="8" stroke-linecap="round"/>
  <path d="M220 220 L220 240" stroke="#FADADD" stroke-width="8" stroke-linecap="round"/>
  
  <!-- Child 1 (left) -->
  <ellipse cx="140" cy="230" rx="30" ry="10" fill="#CDE7F0" opacity="0.3"/>
  <path d="M140 195 L140 220" stroke="#CDE7F0" stroke-width="6" stroke-linecap="round"/>
  <circle cx="140" cy="185" r="12" fill="#CDE7F0"/>
  <path d="M130 205 L125 215" stroke="#CDE7F0" stroke-width="5" stroke-linecap="round"/>
  <path d="M150 205 L155 215" stroke="#CDE7F0" stroke-width="5" stroke-linecap="round"/>
  <path d="M130 220 L130 230" stroke="#CDE7F0" stroke-width="6" stroke-linecap="round"/>
  <path d="M150 220 L150 230" stroke="#CDE7F0" stroke-width="6" stroke-linecap="round"/>
  
  <!-- Child 2 (right) -->
  <ellipse cx="260" cy="230" rx="30" ry="10" fill="#FADADD" opacity="0.3"/>
  <path d="M260 195 L260 220" stroke="#FADADD" stroke-width="6" stroke-linecap="round"/>
  <circle cx="260" cy="185" r="12" fill="#FADADD"/>
  <path d="M250 205 L245 215" stroke="#FADADD" stroke-width="5" stroke-linecap="round"/>
  <path d="M270 205 L275 215" stroke="#FADADD" stroke-width="5" stroke-linecap="round"/>
  <path d="M250 220 L250 230" stroke="#FADADD" stroke-width="6" stroke-linecap="round"/>
  <path d="M270 220 L270 230" stroke="#FADADD" stroke-width="6" stroke-linecap="round"/>
  
  <!-- Hearts -->
  <path d="M180 150 Q175 145 170 145 Q165 145 165 150 Q165 155 170 160 L180 168 L190 160 Q195 155 195 150 Q195 145 190 145 Q185 145 180 150 Z" fill="#FADADD" opacity="0.6"/>
  <path d="M220 160 Q217 157 214 157 Q211 157 211 160 Q211 163 214 166 L220 171 L226 166 Q229 163 229 160 Q229 157 226 157 Q223 157 220 160 Z" fill="#CDE7F0" opacity="0.6"/>
  
  <!-- Decorative stars -->
  <circle cx="100" cy="120" r="3" fill="#FADADD"/>
  <circle cx="300" cy="100" r="3" fill="#CDE7F0"/>
  <circle cx="330" cy="150" r="2" fill="#FADADD"/>
</svg>